<svg xmlns="http://www.w3.org/2000/svg" width="944.073" height="1081.568" viewBox="0 0 944.073 1081.568">
    <g id="Group_10" data-name="Group 10" transform="translate(-379.677 1.068)" opacity="0.3">
        <path id="Path_1" data-name="Path 1" d="M1083.657,339.34v6.65q-52.292,120.315-104.583,240.62Q872.952,830.8,766.832,1074.99a49.85,49.85,0,0,0-1.627,5.01H762.7a41.077,41.077,0,0,1,1.627-6.08c3.806-8.92,7.6-17.85,11.745-26.67a9.544,9.544,0,0,0-.049-9.05c-1.545-3.07-2.473-6.37-4.132-9.38-2.1-3.8-1.61-7.26.065-11.11Q824.15,898.025,876.133,778.29c.488-1.15,1.074-2.27,2.18-4.58,2.9,6.35,5.384,11.77,8.361,18.28,1.367-2.91,2.294-4.77,3.123-6.67q48.412-111.3,96.791-222.61Q1035.123,451.02,1083.657,339.34Z" transform="translate(239.593)" fill="#535353" stroke="rgba(0,0,0,0)" stroke-width="1" />
        <path id="Path_2" data-name="Path 2" d="M446.194,1080c4.727-11.065,9.364-22.16,14.249-33.176,1.244-2.808,1.492-5.294.076-8.1-1.871-3.712-3.187-7.619-4.976-11.364a8.964,8.964,0,0,1,.02-8.07c9.292-21.073,18.416-42.2,27.588-63.309q38.266-88.069,76.535-176.138c.779-1.789,1.687-3.539,2.962-6.2,2.8,6.259,5.206,11.618,7.607,16.978,9.808-18.319,17.53-37.062,25.708-55.657,8.257-18.773,16.344-37.6,24.513-56.4s16.359-37.6,24.533-56.4q12.371-28.449,24.731-56.9,12.254-28.2,24.5-56.4t24.481-56.409q12.262-28.2,24.559-56.391,12.259-28.2,24.471-56.418,12.262-28.2,24.574-56.377,12.259-28.2,24.458-56.417,12.357-28.452,24.756-56.892,12.266-28.2,24.521-56.4t24.512-56.4c8.132-18.7,16.276-37.4,24.88-57.159,2.321,3.067.786,4.739.112,6.31-5.526,12.886-11.137,25.746-16.729,38.611Q796.535,280.2,694.24,515.469,586.8,762.622,479.394,1009.783q-15.27,35.13-30.684,70.217Z" transform="translate(41.225)" fill="#535353" stroke="rgba(0,0,0,0)" stroke-width="1" />
        <path id="Path_3" data-name="Path 3" d="M1063.287,462.76q-5.3,12.165-10.59,24.34-13.225,30.42-26.418,60.85-13.225,30.435-26.467,60.85-13.225,30.42-26.483,60.85c-8.817,20.28-17.569,40.59-26.435,60.86-8.8,20.08-17.227,40.28-26.37,60.26-.423-.05-.846-.1-1.253-.16-2.408-5.36-4.8-10.72-7.629-17.04-1.334,2.9-2.277,4.83-3.123,6.78q-36.894,84.84-73.773,169.7-15.153,34.875-30.371,69.74a7.916,7.916,0,0,0-.033,7.08c1.806,3.74,3.107,7.65,4.994,11.36,1.611,3.14,1.334,5.96-.065,9.1-4.848,10.85-9.4,21.77-14.071,32.67h2.505c.423-.8.878-1.59,1.236-2.42q16.91-38.82,33.8-77.66,95.14-218.955,190.3-437.91,20.131-46.29,40.246-92.57Z" transform="translate(259.963)" fill="#535353" stroke="rgba(0,0,0,0)" stroke-width="1" />
        <path id="Path_4" data-name="Path 4" d="M413.692,1080a37.952,37.952,0,0,1,1.464-5.573c3.933-9.26,7.886-18.517,12.087-27.694a8.753,8.753,0,0,0,0-8.064c-1.583-3.246-2.687-6.662-4.368-9.868-1.884-3.592-1.775-6.867-.142-10.61Q474.843,898.761,526.7,779.254c.643-1.476,1.355-2.931,2.572-5.549,2.905,6.354,5.389,11.787,7.875,17.22l1.173.1Q710.153,395.627,881.983.234h1.259c1.279,2.371-.252,4.4-1.157,6.491q-25.146,57.9-50.32,115.79Q702.617,419.638,573.471,716.761q-77.964,179.361-155.93,358.723A36.54,36.54,0,0,0,416.21,1080Z" transform="translate(20.855)" fill="#535353" stroke="rgba(0,0,0,0)" stroke-width="1" />
        <path id="Path_5" data-name="Path 5" d="M1128.549.234c2.139,2.086.333,4.025-.47,5.893-6.606,15.36-13.307,30.693-19.975,46.035q-91.846,211.3-183.69,422.606-50.547,116.289-101.1,232.576Q742.56,893.163,661.83,1078.987a9.207,9.207,0,0,0-.312,1.013H659c1.827-4.653,3.558-9.334,5.507-13.951,2.793-6.618,5.653-13.219,8.677-19.764a7.584,7.584,0,0,0,.026-7.1c-1.842-3.725-3.086-7.658-4.973-11.364-1.594-3.13-1.334-5.925.047-9.078q23.274-53.133,46.308-106.339,28.925-66.539,57.854-133.077c.691-1.589,1.532-3.131,2.79-5.679l8.09,18.436c1.3-2.672,2.116-4.182,2.79-5.734q29.567-68.014,59.109-136.036,75.243-173.151,150.5-346.3,65.046-149.641,130.11-299.277a46.386,46.386,0,0,0,1.459-4.509Z" transform="translate(174.601)" fill="#535353" stroke="rgba(0,0,0,0)" stroke-width="1" />
        <path id="Path_6" data-name="Path 6" d="M517.387,1080c.273-1.662.221-3.42.874-4.97,3.979-9.433,8.025-18.848,12.262-28.2,1.264-2.79,1.495-5.267.054-8.078-1.814-3.54-2.887-7.345-4.7-10.885-1.6-3.118-1.381-5.89.007-9.049q19.636-44.721,38.988-89.527,32.346-74.475,64.681-148.951c.834-1.923,1.749-3.821,3.086-6.731,2.941,6.465,5.427,11.926,7.911,17.386l1.174-.12L985.344.249c1.316,3.407,1.342,3.415.415,5.555q-7.616,17.57-15.254,35.134-29.362,67.544-58.727,135.087-108.151,248.9-216.3,497.807-87.093,200.415-174.234,400.817c-.786,1.808-1.728,3.568-2.6,5.351Z" transform="translate(85.845)" fill="#535353" stroke="rgba(0,0,0,0)" stroke-width="1" />
        <path id="Path_7" data-name="Path 7" d="M626.5,1080c.288-1.666.254-3.428.913-4.984q6.093-14.391,12.5-28.691a7.826,7.826,0,0,0,.086-7.09c-1.789-3.745-3.073-7.665-4.975-11.366-1.6-3.121-1.375-5.9.01-9.058,12.928-29.494,25.683-59.04,38.508-88.566q32.668-75.216,65.371-150.422c.76-1.75,1.658-3.458,2.949-6.133,2.9,6.4,5.384,11.866,8.409,18.529C865.256,527.634,979.67,264.374,1094.435.309c2.466,2.33,1.214,3.724.662,5q-8.223,19.069-16.529,38.117Q961.157,313.617,843.744,583.8,741.823,818.36,639.9,1052.915c-3.938,9.062-8.091,18.058-12.145,27.085Z" transform="translate(154.23)" fill="#535353" stroke="rgba(0,0,0,0)" stroke-width="1" />
        <path id="Path_8" data-name="Path 8" d="M1019.439.234c2,1.878.447,3.678-.3,5.4q-15.98,36.876-32.053,73.725-47.875,110.1-95.737,220.209Q810.41,485.889,729.509,672.217q-88.481,203.64-177.022,407.262a1.972,1.972,0,0,0-.08.521h-2.518c1.189-3.165,2.263-6.365,3.592-9.488,3.375-7.934,6.74-15.875,10.38-23.725a8.716,8.716,0,0,0,.01-8.1c-1.822-3.732-3.125-7.644-4.984-11.361-1.4-2.793-1.161-5.276.063-8.081q27.312-62.538,54.439-125.133,24.838-57.135,49.705-114.262c.76-1.746,1.575-3.475,2.907-6.407,2.917,6.665,5.261,12.018,8.153,18.625,1.327-2.682,2.163-4.2,2.845-5.772Q782.064,544.663,887.1,303.025,951.93,153.888,1016.7,4.731c.633-1.457.994-3,1.482-4.5Z" transform="translate(106.215)" fill="#535353" stroke="rgba(0,0,0,0)" stroke-width="1" />
        <path id="Path_9" data-name="Path 9" d="M953.662.234c1.433,1.953.132,3.71-.629,5.467q-10.078,23.265-20.209,46.513Q834.538,278.339,736.254,504.465,635.929,735.3,535.61,966.146q-23.762,54.673-47.555,109.338A43.624,43.624,0,0,0,486.63,1080h-2.518a59.636,59.636,0,0,1,1.986-6.567c3.87-9.092,7.787-18.172,11.893-27.191a7.7,7.7,0,0,0,.01-7.072c-1.8-3.74-3.123-7.647-5-11.358-1.589-3.14-1.288-5.968.088-9.122q34.193-78.375,68.2-156.806,17.955-41.31,35.956-82.609c.638-1.464,1.34-2.908,2.6-5.632l8.264,18.283c1.244-2.472,2.12-4.018,2.816-5.619Q697.553,586.939,784.16,387.563q72.881-167.7,145.831-335.376c7.52-17.3,14.943-34.634,22.412-51.953Z" transform="translate(64.99)" fill="#535353" stroke="rgba(0,0,0,0)" stroke-width="1" />
        <path id="Path_10" data-name="Path 10" d="M1127.792,75.58q-4.27,9.795-8.524,19.61Q969.3,440.28,819.312,785.36c-.813,1.89-1.773,3.73-3.156,6.59-2.961-6.47-5.433-11.89-8.443-18.46-3.123,7.27-5.645,13.21-8.215,19.13q-49.144,113.055-98.353,226.09a10.37,10.37,0,0,0,.13,9.6c1.708,3.39,2.9,6.96,4.571,10.37a8.78,8.78,0,0,1,.016,8.07c-4.132,9.02-8.085,18.09-11.957,27.17a41.077,41.077,0,0,0-1.627,6.08h2.505a42.907,42.907,0,0,1,1.383-4.51q53.17-122.475,106.389-244.92,60.637-139.545,121.274-279.08,91.187-209.79,182.391-419.57,10.785-24.825,21.571-49.66Z" transform="translate(195.458)" fill="#535353" stroke="rgba(0,0,0,0)" stroke-width="1" />
        <path id="Path_11" data-name="Path 11" d="M1018.669,726.76l-25.377,58.41c-.83,1.92-1.838,3.8-3.286,6.8-2.928-6.45-5.4-11.92-8.28-18.29-1.3,2.7-2.2,4.43-2.961,6.2q-32.7,75.2-65.362,150.39c-12.819,29.52-25.572,59.05-38.489,88.54-1.383,3.15-1.627,5.94-.016,9.05,1.741,3.38,2.766,7.01,4.506,10.39,1.611,3.12,1.383,5.92-.065,9.07-4.213,9.17-8.134,18.44-12.038,27.71-.651,1.55-.618,3.31-.911,4.97h1.253c.765-1.44,1.611-2.86,2.261-4.33Q932.81,930.935,995.716,786.19q11.469-26.415,22.953-52.83Z" transform="translate(304.581)" fill="#535353" stroke="rgba(0,0,0,0)" stroke-width="1" />
        <path id="Path_12" data-name="Path 12" d="M590.129,1080a45.962,45.962,0,0,1,1.7-6.071c3.951-9.254,7.971-18.487,12.129-27.677a7.629,7.629,0,0,0,.008-7.076c-1.768-3.561-2.979-7.32-4.813-10.853-1.8-3.468-1.453-6.61.078-10.112q29.184-66.747,58.128-133.567,23.013-52.932,46.055-105.855c.569-1.307,1.222-2.589,2.129-4.5,4.148,5.435,4.792,11.568,8.96,17.542Q886.79,395.279,1058.42.234h1.257c1.217,2.17-.111,4.056-.953,6q-28.691,66.064-57.382,132.128Q933.807,293.716,866.249,449.069,761.734,689.529,657.253,930q-31.5,72.491-62.97,144.991c-.7,1.622-1.1,3.337-1.638,5.009Z" transform="translate(131.436)" fill="#535353" stroke="rgba(0,0,0,0)" stroke-width="1" />
        <path id="Path_13" data-name="Path 13" d="M998.3,811.55q-44.9,103.365-89.894,206.7c-1.529,3.51-1.968,6.58-.081,10.06,1.9,3.5,3.009,7.3,4.734,10.88a7.592,7.592,0,0,1,0,7.09c-3.042,6.54-5.872,13.15-8.654,19.77-1.952,4.62-3.676,9.3-5.515,13.95h2.521q26.182-60.375,52.349-120.76Q976.014,908,998.3,856.76Z" transform="translate(324.95)" fill="#535353" stroke="rgba(0,0,0,0)" stroke-width="1" />
        <path id="Path_14" data-name="Path 14" d="M1107.423,199.07q-6.051,13.89-12.087,27.77-12.249,28.215-24.45,56.42-12.25,28.2-24.58,56.39-12.25,28.2-24.466,56.42-12.25,28.2-24.564,56.39-12.249,28.185-24.466,56.4-12.274,28.215-24.548,56.4-12.371,28.455-24.694,56.91-12.249,28.2-24.547,56.39c-8.166,18.8-16.235,37.63-24.482,56.41-8.183,18.6-15.926,37.34-24.515,55.82-.423-.05-.846-.09-1.269-.13-2.375-5.37-4.734-10.73-7.532-17.09-1.3,2.75-2.212,4.49-2.977,6.27q-30.209,69.525-60.368,139.04-21.937,50.46-43.922,100.91a7.916,7.916,0,0,0-.032,7.08c1.806,3.74,3.123,7.65,4.994,11.36,1.578,3.13,1.366,5.94-.049,9.11-4.864,10.83-9.419,21.76-14.088,32.66H727.3c.781-1.63,1.627-3.23,2.343-4.88q34.5-79.41,68.974-158.82Q905.69,669.865,1012.811,423.46q47.313-108.87,94.611-217.74Z" transform="translate(215.827)" fill="#535353" stroke="rgba(0,0,0,0)" stroke-width="1" />
        <path id="Path_15" data-name="Path 15" d="M849.967.234c2.125,1.859.508,3.666-.234,5.393q-8.836,20.565-17.792,41.1Q724.383,294.155,616.82,541.585,521.846,760.064,426.882,978.546,404.845,1029.254,382.935,1080h-2.518c2.266-5.641,4.465-11.3,6.818-16.918,2.427-5.8,4.924-11.571,7.555-17.3a6.725,6.725,0,0,0,.044-6.1c-1.76-3.755-2.987-7.7-4.971-11.363-1.89-3.491-1.459-6.553.07-10.061q47.211-108.3,94.2-216.668,5.266-12.121,10.608-24.219a36.994,36.994,0,0,1,2.048-3.377c2.679,6.12,5.025,11.477,7.369,16.833l1.157.128c.813-1.706,1.68-3.4,2.43-5.122q24.623-56.641,49.227-113.29Q643.289,473.93,729.62,275.323,788.327,140.277,847.04,5.232c.7-1.621,1.117-3.33,1.667-5Z" transform="translate(0)" fill="#535353" stroke="rgba(0,0,0,0)" stroke-width="1" />
        <path id="Path_16" data-name="Path 16" d="M1042.436,586.32Q998.977,686.355,955.5,786.37c-.683,1.58-1.529,3.11-2.8,5.65-2.912-6.5-5.336-11.88-8.264-18.42-1.35,2.97-2.115,4.57-2.831,6.2q-28.281,65.055-56.578,130.11-23.645,54.405-47.387,108.8c-1.383,3.16-1.692,5.96-.1,9.1,1.9,3.71,3.172,7.63,4.994,11.36a7.687,7.687,0,0,1,0,7.09c-4.148,9.19-8.117,18.44-12.07,27.7-.846,1.96-1.35,4.02-2,6.04h2.522c.293-.83.52-1.69.878-2.5q28.915-66.57,57.814-133.12,76.4-175.725,152.751-351.43Z" transform="translate(280.814)" fill="#535353" stroke="rgba(0,0,0,0)" stroke-width="1" />
        <path id="Path_17" data-name="Path 17" d="M977.442,935.05q-18.2,41.835-36.423,83.67a10.418,10.418,0,0,0,.13,9.6c1.789,3.56,3.058,7.29,4.783,10.87a7.646,7.646,0,0,1-.016,7.07c-4.181,9.17-8.182,18.41-12.119,27.67a40.958,40.958,0,0,0-1.627,6.07h2.521a55.392,55.392,0,0,1,1.806-5.49q20.472-47.13,40.945-94.25Z" transform="translate(345.808)" fill="#535353" stroke="rgba(0,0,0,0)" stroke-width="1" />
    </g>
</svg> 